<?xml version="1.0" encoding="UTF-8" standalone="no"?>
<!-- Created with Inkscape (http://www.inkscape.org/) -->

<svg
   xmlns:dc="http://purl.org/dc/elements/1.1/"
   xmlns:cc="http://creativecommons.org/ns#"
   xmlns:rdf="http://www.w3.org/1999/02/22-rdf-syntax-ns#"
   xmlns:svg="http://www.w3.org/2000/svg"
   xmlns="http://www.w3.org/2000/svg"
   xmlns:xlink="http://www.w3.org/1999/xlink"
   version="1.1"
   width="20.041"
   height="29.691601"
   viewBox="0 0 20.041 29.6916"
   id="Layer_1"
   xml:space="preserve"><metadata
   id="metadata35"><rdf:RDF><cc:Work
       rdf:about=""><dc:format>image/svg+xml</dc:format><dc:type
         rdf:resource="http://purl.org/dc/dcmitype/StillImage" /><dc:title></dc:title></cc:Work></rdf:RDF></metadata><defs
   id="defs33" />
<g
   transform="matrix(1,0,0,1.2,-6.6298214e-8,0.7044)"
   id="g3">
	<defs
   id="defs5">
		<path
   d="m 20.041,24.156 c 0,0 -17.297,0 -17.774,0 C 1.58,24.156 0,20.307 0,11.784 0,3.261 1.744,-0.587 2.267,-0.587 c 0.523,0 17.774,0 17.774,0 v 24.743 z"
   id="SVGID_1_" />
	</defs>
	<clipPath
   id="SVGID_2_">
		<use
   id="use9"
   style="overflow:visible"
   x="0"
   y="0"
   width="20.041"
   height="23.562"
   xlink:href="#SVGID_1_" />
	</clipPath>
	
		<linearGradient
   x1="-1.1191"
   y1="16.3008"
   x2="-0.88160002"
   y2="11.7493"
   id="SVGID_3_"
   gradientUnits="userSpaceOnUse"
   gradientTransform="matrix(1,0,0,-1,0,25.4375)">
		<stop
   id="stop12"
   style="stop-color:#808080;stop-opacity:1"
   offset="0" />
		<stop
   id="stop14"
   style="stop-color:#e0e0e0;stop-opacity:1"
   offset="1" />
	</linearGradient>
	<path
   d="m 2.267,23.156 h -8.248 c 0.791,0 2.272,-3.906 2.272,-11.373 0,-7.464 -1.481,-11.371 -2.272,-11.371 h 8.248 c 0.791,0 2.272,3.907 2.272,11.371 0,7.467 -1.481,11.373 -2.272,11.373 z"
   clip-path="url(#SVGID_2_)"
   id="path16"
   style="fill:url(#SVGID_3_)" />
	<path
   d="m 2.267,-67.654 c 9.802,0 17.774,36.159 17.774,79.438 0,43.28 -7.975,79.446 -17.774,79.446 -9.799,0 -18.709,-30.773 -18.709,-79.447 0,-45.95 8.372,-79.437 18.709,-79.437 z m 0,91.759 c 2.349,0 3.208,-7.371 3.208,-12.321 0,-4.949 -0.859,-12.319 -3.208,-12.319 -2.351,0 -3.198,7.37 -3.198,12.319 -0.001,4.95 0.847,12.321 3.198,12.321"
   clip-path="url(#SVGID_2_)"
   id="path18"
   style="fill:#c4c4c3" />
	<path
   d="m 2.267,-0.536 c 2.349,0 3.208,7.37 3.208,12.319 0,4.951 -0.859,12.32 -3.208,12.32 -2.351,0 -3.198,-7.369 -3.198,-12.32 -0.001,-4.949 0.847,-12.319 3.198,-12.319 z m 0,23.692 c 0.791,0 2.272,-3.906 2.272,-11.373 C 4.539,4.319 3.058,0.412 2.267,0.412 1.476,0.412 0,4.32 0,11.784 0,19.25 1.476,23.156 2.267,23.156"
   clip-path="url(#SVGID_2_)"
   id="path20"
   style="fill:#c4c4c3" />
	
		<linearGradient
   x1="-9.9813995"
   y1="-24.643101"
   x2="-11.2478"
   y2="54.205399"
   id="SVGID_4_"
   gradientUnits="userSpaceOnUse"
   gradientTransform="matrix(1,0,0,-1,0,25.4375)">
		<stop
   id="stop23"
   style="stop-color:#9f8657;stop-opacity:1"
   offset="0" />
		<stop
   id="stop25"
   style="stop-color:#9f8657;stop-opacity:1"
   offset="0" />
		<stop
   id="stop27"
   style="stop-color:#fcde8b;stop-opacity:1"
   offset="1" />
	</linearGradient>
	<path
   d="m 2.267,91.23 h -8.248 c -10.491,0 -18.709,-34.893 -18.709,-79.447 0,-44.545 8.218,-79.438 18.709,-79.438 h 8.248 c -9.962,0 -18.709,34.893 -18.709,79.438 0,44.555 8.217,79.447 18.709,79.447 z"
   clip-path="url(#SVGID_2_)"
   id="path29"
   style="fill:url(#SVGID_4_)" />
</g>
</svg>