<?xml version="1.0" encoding="UTF-8" standalone="no"?>

<!-- Created with Inkscape (http://www.inkscape.org/) -->

<svg id="svg1" xmlns:rdf="http://www.w3.org/1999/02/22-rdf-syntax-ns#" xmlns="http://www.w3.org/2000/svg" height="310" width="20" viewBox="0 0 20 310" version="1.1" xmlns:cc="http://creativecommons.org/ns#" xmlns:dc="http://purl.org/dc/elements/1.1/">

 <metadata id="metadata7">

  <rdf:RDF>

   <cc:Work rdf:about="">

    <dc:format>image/svg+xml</dc:format>

    <dc:type rdf:resource="http://purl.org/dc/dcmitype/StillImage"/>

    <dc:title/>

   </cc:Work>

  </rdf:RDF>

 </metadata>

 <g id="layer1" font-size="18px" font-weight="normal" transform="translate(0,-742.36218)" font-style="normal" font-stretch="normal" font-variant="normal" font-family="Arial" fill="#000">

  <g id="flowRoot2985" style="writing-mode:lr-tb;letter-spacing:0px;text-anchor:middle;word-spacing:0px;text-align:center;" transform="translate(0.00439453,706.16309)" line-height="125%">

   <path id="path3189" d="m7.5654,51.673,0-1.5908,4.8604,0,0,1.5908z"/>

  </g>

  <g id="use3041" style="writing-mode:lr-tb;letter-spacing:0px;text-anchor:middle;word-spacing:0px;text-align:center;" transform="translate(0.00439453,990.16317)" line-height="125%">

   <path id="path3186" d="m7.5654,51.673,0-1.5908,4.8604,0,0,1.5908z"/>

  </g>

  <g id="flowRoot3042" style="writing-mode:lr-tb;letter-spacing:0px;text-anchor:middle;word-spacing:0px;text-align:center;" transform="translate(0.00439453,726.4488)" line-height="125%">

   <path id="path3183" d="m7.5654,51.673,0-1.5908,4.8604,0,0,1.5908z"/>

  </g>

  <g id="flowRoot3050" style="writing-mode:lr-tb;letter-spacing:0px;text-anchor:middle;word-spacing:0px;text-align:center;" transform="translate(0.00439453,746.73452)" line-height="125%">

   <path id="path3180" d="m7.5654,51.673,0-1.5908,4.8604,0,0,1.5908z"/>

  </g>

  <g id="flowRoot3058" style="writing-mode:lr-tb;letter-spacing:0px;text-anchor:middle;word-spacing:0px;text-align:center;" transform="translate(0.00439453,767.02024)" line-height="125%">

   <path id="path3177" d="m7.5654,51.673,0-1.5908,4.8604,0,0,1.5908z"/>

  </g>

  <g id="flowRoot3066" style="writing-mode:lr-tb;letter-spacing:0px;text-anchor:middle;word-spacing:0px;text-align:center;" transform="translate(0.00439453,787.30596)" line-height="125%">

   <path id="path3174" d="m7.5654,51.673,0-1.5908,4.8604,0,0,1.5908z"/>

  </g>

  <g id="flowRoot3074" style="writing-mode:lr-tb;letter-spacing:0px;text-anchor:middle;word-spacing:0px;text-align:center;" transform="translate(0.00439453,807.59168)" line-height="125%">

   <path id="path3171" d="m7.5654,51.673,0-1.5908,4.8604,0,0,1.5908z"/>

  </g>

  <g id="flowRoot3082" style="writing-mode:lr-tb;letter-spacing:0px;text-anchor:middle;word-spacing:0px;text-align:center;" transform="translate(0.00439453,827.8774)" line-height="125%">

   <path id="path3168" d="m7.5654,51.673,0-1.5908,4.8604,0,0,1.5908z"/>

  </g>

  <g id="flowRoot3090" style="writing-mode:lr-tb;letter-spacing:0px;text-anchor:middle;word-spacing:0px;text-align:center;" transform="translate(0.00439453,848.16312)" line-height="125%">

   <path id="path3165" d="m7.5654,51.673,0-1.5908,4.8604,0,0,1.5908z"/>

  </g>

  <g id="flowRoot3098" style="writing-mode:lr-tb;letter-spacing:0px;text-anchor:middle;word-spacing:0px;text-align:center;" transform="translate(0.00439453,868.44884)" line-height="125%">

   <path id="path3162" d="m7.5654,51.673,0-1.5908,4.8604,0,0,1.5908z"/>

  </g>

  <g id="flowRoot3106" style="writing-mode:lr-tb;letter-spacing:0px;text-anchor:middle;word-spacing:0px;text-align:center;" transform="translate(0.00439453,888.73456)" line-height="125%">

   <path id="path3159" d="m7.5654,51.673,0-1.5908,4.8604,0,0,1.5908z"/>

  </g>

  <g id="flowRoot3114" style="writing-mode:lr-tb;letter-spacing:0px;text-anchor:middle;word-spacing:0px;text-align:center;" transform="translate(0.00439453,909.02028)" line-height="125%">

   <path id="path3156" d="m7.5654,51.673,0-1.5908,4.8604,0,0,1.5908z"/>

  </g>

  <g id="flowRoot3122" style="writing-mode:lr-tb;letter-spacing:0px;text-anchor:middle;word-spacing:0px;text-align:center;" transform="translate(0.00439453,929.30601)" line-height="125%">

   <path id="path3153" d="m7.5654,51.673,0-1.5908,4.8604,0,0,1.5908z"/>

  </g>

  <g id="flowRoot3130" style="writing-mode:lr-tb;letter-spacing:0px;text-anchor:middle;word-spacing:0px;text-align:center;" transform="translate(0.00439453,949.59173)" line-height="125%">

   <path id="path3150" d="m7.5654,51.673,0-1.5908,4.8604,0,0,1.5908z"/>

  </g>

  <g id="flowRoot3138" style="writing-mode:lr-tb;letter-spacing:0px;text-anchor:middle;word-spacing:0px;text-align:center;" transform="translate(0.00439453,969.87745)" line-height="125%">

   <path id="path3147" d="m7.5654,51.673,0-1.5908,4.8604,0,0,1.5908z"/>

  </g>

 </g>

</svg>

