<?xml version="1.0" encoding="UTF-8" standalone="no"?>
<!-- Created with Inkscape (http://www.inkscape.org/) -->

<svg
   xmlns:dc="http://purl.org/dc/elements/1.1/"
   xmlns:cc="http://creativecommons.org/ns#"
   xmlns:rdf="http://www.w3.org/1999/02/22-rdf-syntax-ns#"
   xmlns:svg="http://www.w3.org/2000/svg"
   xmlns="http://www.w3.org/2000/svg"
   xmlns:sodipodi="http://sodipodi.sourceforge.net/DTD/sodipodi-0.dtd"
   xmlns:inkscape="http://www.inkscape.org/namespaces/inkscape"
   width="20"
   height="310"
   id="svg2"
   version="1.1"
   inkscape:version="0.48.4 r9939"
   sodipodi:docname="Positive.svg"
   inkscape:export-filename="C:\Users\William\Downloads\Positive.png"
   inkscape:export-xdpi="90"
   inkscape:export-ydpi="90">
  <defs
     id="defs4" />
  <sodipodi:namedview
     id="base"
     pagecolor="#ffffff"
     bordercolor="#666666"
     borderopacity="1.0"
     inkscape:pageopacity="0.0"
     inkscape:pageshadow="2"
     inkscape:zoom="1.4873429"
     inkscape:cx="194.15243"
     inkscape:cy="157.02165"
     inkscape:document-units="px"
     inkscape:current-layer="layer1"
     showgrid="false"
     inkscape:snap-page="true"
     inkscape:snap-bbox="true"
     inkscape:bbox-paths="true"
     inkscape:bbox-nodes="true"
     inkscape:snap-bbox-edge-midpoints="true"
     inkscape:snap-bbox-midpoints="true"
     inkscape:window-width="1920"
     inkscape:window-height="1017"
     inkscape:window-x="-8"
     inkscape:window-y="-8"
     inkscape:window-maximized="1" />
  <metadata
     id="metadata7">
    <rdf:RDF>
      <cc:Work
         rdf:about="">
        <dc:format>image/svg+xml</dc:format>
        <dc:type
           rdf:resource="http://purl.org/dc/dcmitype/StillImage" />
        <dc:title />
      </cc:Work>
    </rdf:RDF>
  </metadata>
  <g
     inkscape:label="Layer 1"
     inkscape:groupmode="layer"
     id="layer1"
     transform="translate(0,-742.36218)">
    <g
       transform="translate(5e-5,706.16316)"
       style="font-size:18px;font-style:normal;font-variant:normal;font-weight:normal;font-stretch:normal;text-align:center;line-height:125%;letter-spacing:0px;word-spacing:0px;writing-mode:lr-tb;text-anchor:middle;fill:#000000;fill-opacity:1;stroke:none;font-family:Arial;-inkscape-font-specification:Arial"
       id="flowRoot2985">
      <path
         d="m 9.2529297,53.457315 0,-3.533203 -3.506836,0 0,-1.476563 3.506836,0 0,-3.506836 1.4941403,0 0,3.506836 3.506836,0 0,1.476563 -3.506836,0 0,3.533203 z"
         style="font-family:Arial;-inkscape-font-specification:Arial"
         id="path3257" />
    </g>
    <g
       transform="translate(5e-5,726.44886)"
       style="font-size:18px;font-style:normal;font-variant:normal;font-weight:normal;font-stretch:normal;text-align:center;line-height:125%;letter-spacing:0px;word-spacing:0px;writing-mode:lr-tb;text-anchor:middle;fill:#000000;fill-opacity:1;stroke:none;font-family:Arial;-inkscape-font-specification:Arial"
       id="flowRoot2993">
      <path
         d="m 9.2529297,53.457315 0,-3.533203 -3.506836,0 0,-1.476563 3.506836,0 0,-3.506836 1.4941403,0 0,3.506836 3.506836,0 0,1.476563 -3.506836,0 0,3.533203 z"
         style="font-family:Arial;-inkscape-font-specification:Arial"
         id="path3260" />
    </g>
    <g
       transform="translate(5e-5,746.73457)"
       style="font-size:18px;font-style:normal;font-variant:normal;font-weight:normal;font-stretch:normal;text-align:center;line-height:125%;letter-spacing:0px;word-spacing:0px;writing-mode:lr-tb;text-anchor:middle;fill:#000000;fill-opacity:1;stroke:none;font-family:Arial;-inkscape-font-specification:Arial"
       id="use3017">
      <path
         d="m 9.2529297,53.457315 0,-3.533203 -3.506836,0 0,-1.476563 3.506836,0 0,-3.506836 1.4941403,0 0,3.506836 3.506836,0 0,1.476563 -3.506836,0 0,3.533203 z"
         style="font-family:Arial;-inkscape-font-specification:Arial"
         id="path3263" />
    </g>
    <g
       transform="translate(5e-5,767.02029)"
       style="font-size:18px;font-style:normal;font-variant:normal;font-weight:normal;font-stretch:normal;text-align:center;line-height:125%;letter-spacing:0px;word-spacing:0px;writing-mode:lr-tb;text-anchor:middle;fill:#000000;fill-opacity:1;stroke:none;font-family:Arial;-inkscape-font-specification:Arial"
       id="use3019">
      <path
         d="m 9.2529297,53.457315 0,-3.533203 -3.506836,0 0,-1.476563 3.506836,0 0,-3.506836 1.4941403,0 0,3.506836 3.506836,0 0,1.476563 -3.506836,0 0,3.533203 z"
         style="font-family:Arial;-inkscape-font-specification:Arial"
         id="path3266" />
    </g>
    <g
       transform="translate(5e-5,787.30601)"
       style="font-size:18px;font-style:normal;font-variant:normal;font-weight:normal;font-stretch:normal;text-align:center;line-height:125%;letter-spacing:0px;word-spacing:0px;writing-mode:lr-tb;text-anchor:middle;fill:#000000;fill-opacity:1;stroke:none;font-family:Arial;-inkscape-font-specification:Arial"
       id="use3021">
      <path
         d="m 9.2529297,53.457315 0,-3.533203 -3.506836,0 0,-1.476563 3.506836,0 0,-3.506836 1.4941403,0 0,3.506836 3.506836,0 0,1.476563 -3.506836,0 0,3.533203 z"
         style="font-family:Arial;-inkscape-font-specification:Arial"
         id="path3269" />
    </g>
    <g
       transform="translate(5e-5,807.59173)"
       style="font-size:18px;font-style:normal;font-variant:normal;font-weight:normal;font-stretch:normal;text-align:center;line-height:125%;letter-spacing:0px;word-spacing:0px;writing-mode:lr-tb;text-anchor:middle;fill:#000000;fill-opacity:1;stroke:none;font-family:Arial;-inkscape-font-specification:Arial"
       id="use3023">
      <path
         d="m 9.2529297,53.457315 0,-3.533203 -3.506836,0 0,-1.476563 3.506836,0 0,-3.506836 1.4941403,0 0,3.506836 3.506836,0 0,1.476563 -3.506836,0 0,3.533203 z"
         style="font-family:Arial;-inkscape-font-specification:Arial"
         id="path3272" />
    </g>
    <g
       transform="translate(5e-5,827.87745)"
       style="font-size:18px;font-style:normal;font-variant:normal;font-weight:normal;font-stretch:normal;text-align:center;line-height:125%;letter-spacing:0px;word-spacing:0px;writing-mode:lr-tb;text-anchor:middle;fill:#000000;fill-opacity:1;stroke:none;font-family:Arial;-inkscape-font-specification:Arial"
       id="use3025">
      <path
         d="m 9.2529297,53.457315 0,-3.533203 -3.506836,0 0,-1.476563 3.506836,0 0,-3.506836 1.4941403,0 0,3.506836 3.506836,0 0,1.476563 -3.506836,0 0,3.533203 z"
         style="font-family:Arial;-inkscape-font-specification:Arial"
         id="path3275" />
    </g>
    <g
       transform="translate(5e-5,848.16317)"
       style="font-size:18px;font-style:normal;font-variant:normal;font-weight:normal;font-stretch:normal;text-align:center;line-height:125%;letter-spacing:0px;word-spacing:0px;writing-mode:lr-tb;text-anchor:middle;fill:#000000;fill-opacity:1;stroke:none;font-family:Arial;-inkscape-font-specification:Arial"
       id="use3027">
      <path
         d="m 9.2529297,53.457315 0,-3.533203 -3.506836,0 0,-1.476563 3.506836,0 0,-3.506836 1.4941403,0 0,3.506836 3.506836,0 0,1.476563 -3.506836,0 0,3.533203 z"
         style="font-family:Arial;-inkscape-font-specification:Arial"
         id="path3278" />
    </g>
    <g
       transform="translate(5e-5,868.44889)"
       style="font-size:18px;font-style:normal;font-variant:normal;font-weight:normal;font-stretch:normal;text-align:center;line-height:125%;letter-spacing:0px;word-spacing:0px;writing-mode:lr-tb;text-anchor:middle;fill:#000000;fill-opacity:1;stroke:none;font-family:Arial;-inkscape-font-specification:Arial"
       id="use3029">
      <path
         d="m 9.2529297,53.457315 0,-3.533203 -3.506836,0 0,-1.476563 3.506836,0 0,-3.506836 1.4941403,0 0,3.506836 3.506836,0 0,1.476563 -3.506836,0 0,3.533203 z"
         style="font-family:Arial;-inkscape-font-specification:Arial"
         id="path3281" />
    </g>
    <g
       transform="translate(5e-5,888.7346)"
       style="font-size:18px;font-style:normal;font-variant:normal;font-weight:normal;font-stretch:normal;text-align:center;line-height:125%;letter-spacing:0px;word-spacing:0px;writing-mode:lr-tb;text-anchor:middle;fill:#000000;fill-opacity:1;stroke:none;font-family:Arial;-inkscape-font-specification:Arial"
       id="use3031">
      <path
         d="m 9.2529297,53.457315 0,-3.533203 -3.506836,0 0,-1.476563 3.506836,0 0,-3.506836 1.4941403,0 0,3.506836 3.506836,0 0,1.476563 -3.506836,0 0,3.533203 z"
         style="font-family:Arial;-inkscape-font-specification:Arial"
         id="path3284" />
    </g>
    <g
       transform="translate(5e-5,909.02031)"
       style="font-size:18px;font-style:normal;font-variant:normal;font-weight:normal;font-stretch:normal;text-align:center;line-height:125%;letter-spacing:0px;word-spacing:0px;writing-mode:lr-tb;text-anchor:middle;fill:#000000;fill-opacity:1;stroke:none;font-family:Arial;-inkscape-font-specification:Arial"
       id="use3033">
      <path
         d="m 9.2529297,53.457315 0,-3.533203 -3.506836,0 0,-1.476563 3.506836,0 0,-3.506836 1.4941403,0 0,3.506836 3.506836,0 0,1.476563 -3.506836,0 0,3.533203 z"
         style="font-family:Arial;-inkscape-font-specification:Arial"
         id="path3287" />
    </g>
    <g
       transform="translate(5e-5,929.30603)"
       style="font-size:18px;font-style:normal;font-variant:normal;font-weight:normal;font-stretch:normal;text-align:center;line-height:125%;letter-spacing:0px;word-spacing:0px;writing-mode:lr-tb;text-anchor:middle;fill:#000000;fill-opacity:1;stroke:none;font-family:Arial;-inkscape-font-specification:Arial"
       id="use3035">
      <path
         d="m 9.2529297,53.457315 0,-3.533203 -3.506836,0 0,-1.476563 3.506836,0 0,-3.506836 1.4941403,0 0,3.506836 3.506836,0 0,1.476563 -3.506836,0 0,3.533203 z"
         style="font-family:Arial;-inkscape-font-specification:Arial"
         id="path3290" />
    </g>
    <g
       transform="translate(5e-5,949.59174)"
       style="font-size:18px;font-style:normal;font-variant:normal;font-weight:normal;font-stretch:normal;text-align:center;line-height:125%;letter-spacing:0px;word-spacing:0px;writing-mode:lr-tb;text-anchor:middle;fill:#000000;fill-opacity:1;stroke:none;font-family:Arial;-inkscape-font-specification:Arial"
       id="use3037">
      <path
         d="m 9.2529297,53.457315 0,-3.533203 -3.506836,0 0,-1.476563 3.506836,0 0,-3.506836 1.4941403,0 0,3.506836 3.506836,0 0,1.476563 -3.506836,0 0,3.533203 z"
         style="font-family:Arial;-inkscape-font-specification:Arial"
         id="path3293" />
    </g>
    <g
       transform="translate(5e-5,969.87746)"
       style="font-size:18px;font-style:normal;font-variant:normal;font-weight:normal;font-stretch:normal;text-align:center;line-height:125%;letter-spacing:0px;word-spacing:0px;writing-mode:lr-tb;text-anchor:middle;fill:#000000;fill-opacity:1;stroke:none;font-family:Arial;-inkscape-font-specification:Arial"
       id="use3039">
      <path
         d="m 9.2529297,53.457315 0,-3.533203 -3.506836,0 0,-1.476563 3.506836,0 0,-3.506836 1.4941403,0 0,3.506836 3.506836,0 0,1.476563 -3.506836,0 0,3.533203 z"
         style="font-family:Arial;-inkscape-font-specification:Arial"
         id="path3296" />
    </g>
    <g
       transform="translate(5e-5,990.16317)"
       style="font-size:18px;font-style:normal;font-variant:normal;font-weight:normal;font-stretch:normal;text-align:center;line-height:125%;letter-spacing:0px;word-spacing:0px;writing-mode:lr-tb;text-anchor:middle;fill:#000000;fill-opacity:1;stroke:none;font-family:Arial;-inkscape-font-specification:Arial"
       id="use3041">
      <path
         d="m 9.2529297,53.457315 0,-3.533203 -3.506836,0 0,-1.476563 3.506836,0 0,-3.506836 1.4941403,0 0,3.506836 3.506836,0 0,1.476563 -3.506836,0 0,3.533203 z"
         style="font-family:Arial;-inkscape-font-specification:Arial"
         id="path3299" />
    </g>
  </g>
</svg>
