<?xml version="1.0" encoding="UTF-8" standalone="no"?>

<!-- Created with Inkscape (http://www.inkscape.org/) -->

<svg id="svg2" xmlns:rdf="http://www.w3.org/1999/02/22-rdf-syntax-ns#" xmlns="http://www.w3.org/2000/svg" height="310" width="20" version="1.1" xmlns:cc="http://creativecommons.org/ns#" xmlns:dc="http://purl.org/dc/elements/1.1/" viewBox="0 0 20 310">

 <metadata id="metadata7">

  <rdf:RDF>

   <cc:Work rdf:about="">

    <dc:format>image/svg+xml</dc:format>

    <dc:type rdf:resource="http://purl.org/dc/dcmitype/StillImage"/>

    <dc:title/>

   </cc:Work>

  </rdf:RDF>

 </metadata>

 <g id="layer1" font-size="18px" font-weight="normal" transform="translate(0,-742.36218)" font-style="normal" font-stretch="normal" font-variant="normal" font-family="Arial" fill="#000">

  <g id="flowRoot2985" style="writing-mode:lr-tb;letter-spacing:0px;text-anchor:middle;word-spacing:0px;text-align:center;" transform="translate(5e-5,706.16316)" line-height="125%">

   <path id="path3257" d="m9.2529,53.457,0-3.5332-3.5068,0,0-1.4766,3.5068,0,0-3.5068,1.4941,0,0,3.5068,3.5068,0,0,1.4766-3.5068,0,0,3.5332z"/>

  </g>

  <g id="flowRoot2993" style="writing-mode:lr-tb;letter-spacing:0px;text-anchor:middle;word-spacing:0px;text-align:center;" transform="translate(5e-5,726.44886)" line-height="125%">

   <path id="path3260" d="m9.2529,53.457,0-3.5332-3.5068,0,0-1.4766,3.5068,0,0-3.5068,1.4941,0,0,3.5068,3.5068,0,0,1.4766-3.5068,0,0,3.5332z"/>

  </g>

  <g id="use3017" style="writing-mode:lr-tb;letter-spacing:0px;text-anchor:middle;word-spacing:0px;text-align:center;" transform="translate(5e-5,746.73457)" line-height="125%">

   <path id="path3263" d="m9.2529,53.457,0-3.5332-3.5068,0,0-1.4766,3.5068,0,0-3.5068,1.4941,0,0,3.5068,3.5068,0,0,1.4766-3.5068,0,0,3.5332z"/>

  </g>

  <g id="use3019" style="writing-mode:lr-tb;letter-spacing:0px;text-anchor:middle;word-spacing:0px;text-align:center;" transform="translate(5e-5,767.02029)" line-height="125%">

   <path id="path3266" d="m9.2529,53.457,0-3.5332-3.5068,0,0-1.4766,3.5068,0,0-3.5068,1.4941,0,0,3.5068,3.5068,0,0,1.4766-3.5068,0,0,3.5332z"/>

  </g>

  <g id="use3021" style="writing-mode:lr-tb;letter-spacing:0px;text-anchor:middle;word-spacing:0px;text-align:center;" transform="translate(5e-5,787.30601)" line-height="125%">

   <path id="path3269" d="m9.2529,53.457,0-3.5332-3.5068,0,0-1.4766,3.5068,0,0-3.5068,1.4941,0,0,3.5068,3.5068,0,0,1.4766-3.5068,0,0,3.5332z"/>

  </g>

  <g id="use3023" style="writing-mode:lr-tb;letter-spacing:0px;text-anchor:middle;word-spacing:0px;text-align:center;" transform="translate(5e-5,807.59173)" line-height="125%">

   <path id="path3272" d="m9.2529,53.457,0-3.5332-3.5068,0,0-1.4766,3.5068,0,0-3.5068,1.4941,0,0,3.5068,3.5068,0,0,1.4766-3.5068,0,0,3.5332z"/>

  </g>

  <g id="use3025" style="writing-mode:lr-tb;letter-spacing:0px;text-anchor:middle;word-spacing:0px;text-align:center;" transform="translate(5e-5,827.87745)" line-height="125%">

   <path id="path3275" d="m9.2529,53.457,0-3.5332-3.5068,0,0-1.4766,3.5068,0,0-3.5068,1.4941,0,0,3.5068,3.5068,0,0,1.4766-3.5068,0,0,3.5332z"/>

  </g>

  <g id="use3027" style="writing-mode:lr-tb;letter-spacing:0px;text-anchor:middle;word-spacing:0px;text-align:center;" transform="translate(5e-5,848.16317)" line-height="125%">

   <path id="path3278" d="m9.2529,53.457,0-3.5332-3.5068,0,0-1.4766,3.5068,0,0-3.5068,1.4941,0,0,3.5068,3.5068,0,0,1.4766-3.5068,0,0,3.5332z"/>

  </g>

  <g id="use3029" style="writing-mode:lr-tb;letter-spacing:0px;text-anchor:middle;word-spacing:0px;text-align:center;" transform="translate(5e-5,868.44889)" line-height="125%">

   <path id="path3281" d="m9.2529,53.457,0-3.5332-3.5068,0,0-1.4766,3.5068,0,0-3.5068,1.4941,0,0,3.5068,3.5068,0,0,1.4766-3.5068,0,0,3.5332z"/>

  </g>

  <g id="use3031" style="writing-mode:lr-tb;letter-spacing:0px;text-anchor:middle;word-spacing:0px;text-align:center;" transform="translate(5e-5,888.7346)" line-height="125%">

   <path id="path3284" d="m9.2529,53.457,0-3.5332-3.5068,0,0-1.4766,3.5068,0,0-3.5068,1.4941,0,0,3.5068,3.5068,0,0,1.4766-3.5068,0,0,3.5332z"/>

  </g>

  <g id="use3033" style="writing-mode:lr-tb;letter-spacing:0px;text-anchor:middle;word-spacing:0px;text-align:center;" transform="translate(5e-5,909.02031)" line-height="125%">

   <path id="path3287" d="m9.2529,53.457,0-3.5332-3.5068,0,0-1.4766,3.5068,0,0-3.5068,1.4941,0,0,3.5068,3.5068,0,0,1.4766-3.5068,0,0,3.5332z"/>

  </g>

  <g id="use3035" style="writing-mode:lr-tb;letter-spacing:0px;text-anchor:middle;word-spacing:0px;text-align:center;" transform="translate(5e-5,929.30603)" line-height="125%">

   <path id="path3290" d="m9.2529,53.457,0-3.5332-3.5068,0,0-1.4766,3.5068,0,0-3.5068,1.4941,0,0,3.5068,3.5068,0,0,1.4766-3.5068,0,0,3.5332z"/>

  </g>

  <g id="use3037" style="writing-mode:lr-tb;letter-spacing:0px;text-anchor:middle;word-spacing:0px;text-align:center;" transform="translate(5e-5,949.59174)" line-height="125%">

   <path id="path3293" d="m9.2529,53.457,0-3.5332-3.5068,0,0-1.4766,3.5068,0,0-3.5068,1.4941,0,0,3.5068,3.5068,0,0,1.4766-3.5068,0,0,3.5332z"/>

  </g>

  <g id="use3039" style="writing-mode:lr-tb;letter-spacing:0px;text-anchor:middle;word-spacing:0px;text-align:center;" transform="translate(5e-5,969.87746)" line-height="125%">

   <path id="path3296" d="m9.2529,53.457,0-3.5332-3.5068,0,0-1.4766,3.5068,0,0-3.5068,1.4941,0,0,3.5068,3.5068,0,0,1.4766-3.5068,0,0,3.5332z"/>

  </g>

  <g id="use3041" style="writing-mode:lr-tb;letter-spacing:0px;text-anchor:middle;word-spacing:0px;text-align:center;" transform="translate(5e-5,990.16317)" line-height="125%">

   <path id="path3299" d="m9.2529,53.457,0-3.5332-3.5068,0,0-1.4766,3.5068,0,0-3.5068,1.4941,0,0,3.5068,3.5068,0,0,1.4766-3.5068,0,0,3.5332z"/>

  </g>

 </g>

</svg>

