<?xml version="1.0" encoding="utf-8"?>
<!-- Generator: Adobe Illustrator 16.0.3, SVG Export Plug-In . SVG Version: 6.00 Build 0)  -->
<!DOCTYPE svg PUBLIC "-//W3C//DTD SVG 1.1//EN" "http://www.w3.org/Graphics/SVG/1.1/DTD/svg11.dtd">
<svg version="1.1" xmlns="http://www.w3.org/2000/svg" xmlns:xlink="http://www.w3.org/1999/xlink" x="0px" y="0px"
	 width="77.703px" height="65.072px" viewBox="6.342 8.04 77.703 65.072" enable-background="new 6.342 8.04 77.703 65.072"
	 xml:space="preserve">
<filter  id="filter3296" inkscape:label="Drop shadow" x="-.25" y="-.25" width="1.5" height="1.5">
	<feGaussianBlur  result="blur" stdDeviation="2" in="SourceAlpha" id="feGaussianBlur3298"></feGaussianBlur>
	<feColorMatrix  type="matrix" values="1 0 0 0 0 0 1 0 0 0 0 0 1 0 0 0 0 0 0.5 0 " result="bluralpha" id="feColorMatrix3300">
		</feColorMatrix>
	<feOffset  dx="3" dy="3" result="offsetBlur" in="bluralpha" id="feOffset3302"></feOffset>
	<feMerge  id="feMerge3304">
		<feMergeNode  in="offsetBlur" id="feMergeNode3306"></feMergeNode>
		<feMergeNode  in="SourceGraphic" id="feMergeNode3308"></feMergeNode>
	</feMerge>
</filter>
<g id="Layer_1" xmlns:svg="http://www.w3.org/2000/svg" xmlns:rdf="http://www.w3.org/1999/02/22-rdf-syntax-ns#" xmlns:cc="http://creativecommons.org/ns#" xmlns:dc="http://purl.org/dc/elements/1.1/" xmlns:sodipodi="http://sodipodi.sourceforge.net/DTD/sodipodi-0.dtd" xmlns:inkscape="http://www.inkscape.org/namespaces/inkscape" sodipodi:docname="waterDyeKey.svg" inkscape:version="0.48.2 r9819">
	
		<sodipodi:namedview  bordercolor="#666666" inkscape:zoom="8.1025641" showgrid="false" borderopacity="1" guidetolerance="10" gridtolerance="10" objecttolerance="10" pagecolor="#ffffff" inkscape:cy="39" inkscape:cx="45" id="namedview3087" inkscape:current-layer="g3067" inkscape:window-height="915" inkscape:window-width="1679" inkscape:pageshadow="2" inkscape:pageopacity="0" inkscape:window-maximized="0" inkscape:window-y="0" inkscape:window-x="0">
		</sodipodi:namedview>
	<g id="g3067">
		<g id="g3071" filter="url(#filter3296)">
			<path fill="#DCECDA" d="M83.563,67.054c0,3.08-2.688,5.576-6,5.576H12.824c-3.313,0-6-2.496-6-5.576V14.408
				c0-3.08,2.687-5.577,6-5.577h64.739c3.312,0,6,2.497,6,5.577V67.054z"/>
			<path fill="none" stroke="#231F20" stroke-width="0.9641" stroke-miterlimit="10" d="M83.563,67.054c0,3.08-2.688,5.576-6,5.576
				H12.824c-3.313,0-6-2.496-6-5.576V14.408c0-3.08,2.687-5.577,6-5.577h64.739c3.312,0,6,2.497,6,5.577V67.054z"/>
		</g>
	</g>
	<circle id="circle3083" fill="#99CCFF" stroke="#000000" stroke-miterlimit="10" cx="17.783" cy="34.713" r="3.473"/>
	<circle id="circle3085" fill="#FF0000" stroke="#000000" stroke-miterlimit="10" cx="17.783" cy="52.906" r="3.473"/>
</g>
<g id="Layer_2">
	<text transform="matrix(1 0 0 1 28.8521 57.969)" font-family="'Tahoma'" font-size="14">Farge</text>
	<text transform="matrix(1 0 0 1 27.8521 39.3918)" font-family="'Tahoma'" font-size="14">Vatn</text>
	<text transform="matrix(1.0525 0 0 1 12.8491 22.5725)" font-family="'Tahoma'" font-size="14">Forklaring</text>
</g>
</svg>
