<?xml version="1.0" encoding="utf-8"?>
<!-- Generator: Adobe Illustrator 18.1.1, SVG Export Plug-In . SVG Version: 6.00 Build 0)  -->
<svg version="1.1" id="Layer_1" xmlns="http://www.w3.org/2000/svg" xmlns:xlink="http://www.w3.org/1999/xlink" x="0px" y="0px"
	 width="9.5px" height="6.4px" viewBox="-302 391.9 9.5 6.4" enable-background="new -302 391.9 9.5 6.4" xml:space="preserve">
<g>
	<path d="M-302,391.9h2.6c0.5,0,0.9,0,1.1,0.1c0.2,0,0.5,0.1,0.7,0.3c0.2,0.1,0.4,0.3,0.5,0.5c0.1,0.2,0.2,0.5,0.2,0.8
		c0,0.3-0.1,0.6-0.2,0.8c-0.2,0.3-0.4,0.4-0.7,0.6c0.4,0.1,0.7,0.3,0.9,0.6s0.3,0.6,0.3,1c0,0.3-0.1,0.6-0.2,0.9
		c-0.1,0.3-0.3,0.5-0.6,0.7c-0.2,0.2-0.5,0.3-0.9,0.3c-0.2,0-0.7,0-1.6,0h-2.2V391.9z M-300.7,392.9v1.5h0.9c0.5,0,0.8,0,0.9,0
		c0.2,0,0.4-0.1,0.5-0.2c0.1-0.1,0.2-0.3,0.2-0.5c0-0.2-0.1-0.4-0.2-0.5c-0.1-0.1-0.3-0.2-0.5-0.2c-0.1,0-0.5,0-1.1,0H-300.7z
		 M-300.7,395.5v1.7h1.2c0.5,0,0.8,0,0.9,0c0.2,0,0.4-0.1,0.5-0.3c0.1-0.1,0.2-0.3,0.2-0.5c0-0.2,0-0.4-0.1-0.5s-0.2-0.2-0.4-0.3
		c-0.2-0.1-0.6-0.1-1.2-0.1H-300.7z"/>
	<path d="M-294.3,398.3h-1.2v-4.7h1.1v0.7c0.2-0.3,0.4-0.5,0.5-0.6c0.2-0.1,0.3-0.1,0.5-0.1c0.3,0,0.6,0.1,0.8,0.2l-0.4,1.1
		c-0.2-0.1-0.4-0.2-0.6-0.2c-0.2,0-0.3,0-0.4,0.1c-0.1,0.1-0.2,0.3-0.3,0.5c-0.1,0.2-0.1,0.8-0.1,1.6V398.3z"/>
</g>
</svg>
