<?xml version="1.0" encoding="utf-8"?>
<!-- Generator: Adobe Illustrator 22.1.0, SVG Export Plug-In . SVG Version: 6.00 Build 0)  -->
<svg version="1.1" id="Layer_1" xmlns="http://www.w3.org/2000/svg" xmlns:xlink="http://www.w3.org/1999/xlink" x="0px" y="0px"
	 width="120.164px" height="23.164px" viewBox="0.245 -0.5 120.164 23.164" enable-background="new 0.245 -0.5 120.164 23.164"
	 xml:space="preserve">
<style type="text/css">
	.st0{fill:#FFFFFF;stroke:#010101;}
	.st1{fill:#ADDAFD;stroke:#010101;}
	.st2{fill:#8F72B3;stroke:#010101;}
	.st3{enable-background:new    ;}
	.st4{fill:#010101;}
</style>
<path class="st0" d="M119.5,12.1c0,6.1-3.4,11-7.5,11L7.8,23.2c-4.2,0-7.5-4.9-7.5-11v-0.1c0-6.1,3.4-11,7.5-11L111.9,1
	c4.2,0,7.5,4.9,7.5,11L119.5,12.1L119.5,12.1L119.5,12.1z"/>
<circle class="st1" cx="20" cy="11.1" r="5.7"/>
<circle class="st2" cx="77.7" cy="11.3" r="5.7"/>
<g class="st3">
	<path d="M29.8,16V5.3h1.4v4.4h5.6V5.3h1.4V16h-1.4v-5.1h-5.6V16H29.8z"/>
	<path d="M44.3,10.8c0-1.8,0.5-3.2,1.4-4.2c1-1,2.2-1.5,3.7-1.5c1,0,1.9,0.2,2.7,0.7s1.4,1.1,1.8,2c0.4,0.8,0.6,1.8,0.6,2.9
		c0,1.1-0.2,2.1-0.7,2.9c-0.4,0.9-1.1,1.5-1.9,2c-0.8,0.4-1.7,0.7-2.6,0.7c-1,0-1.9-0.2-2.7-0.7s-1.4-1.2-1.8-2
		C44.5,12.6,44.3,11.7,44.3,10.8z M45.8,10.8c0,1.3,0.3,2.3,1,3.1c0.7,0.7,1.6,1.1,2.6,1.1c1.1,0,1.9-0.4,2.6-1.1s1-1.8,1-3.2
		c0-0.9-0.1-1.6-0.4-2.3c-0.3-0.7-0.7-1.2-1.3-1.5c-0.6-0.4-1.2-0.5-1.9-0.5c-1,0-1.9,0.3-2.6,1C46.1,8,45.8,9.2,45.8,10.8z"/>
</g>
<g class="st3">
	<path class="st4" d="M42,13.1c0.3,0,0.6,0,0.9,0.1c0.3,0.1,0.5,0.2,0.7,0.4s0.3,0.4,0.5,0.6c0.1,0.2,0.2,0.5,0.2,0.8s0,0.5-0.1,0.7
		s-0.4,0.6-0.5,0.8s-0.3,0.4-0.5,0.6s-0.4,0.4-0.6,0.6l-1.9,1.9c0.1,0,0.3-0.1,0.4-0.1s0.3,0,0.4,0h2.4c0.1,0,0.2,0,0.2,0.1
		s0.1,0.1,0.1,0.2v0.5h-4.8V20c0-0.1,0-0.1,0-0.2s0.1-0.1,0.1-0.2l2.3-2.3c0.2-0.2,0.4-0.4,0.5-0.6c0.2-0.2,0.3-0.4,0.4-0.5
		c0.1-0.2,0.2-0.4,0.3-0.5c0.1-0.2,0.1-0.4,0.1-0.6c0-0.2,0-0.4-0.1-0.6c-0.1-0.2-0.2-0.3-0.3-0.4c-0.1-0.1-0.3-0.2-0.4-0.2
		c-0.2-0.1-0.3-0.1-0.5-0.1s-0.3,0-0.5,0.1S41,14,40.9,14.1c-0.1,0.1-0.2,0.2-0.3,0.3s-0.1,0.3-0.2,0.4c0,0.1-0.1,0.2-0.1,0.2
		c-0.1,0-0.1,0.1-0.2,0.1c0,0,0,0-0.1,0c0,0,0,0-0.1,0L39.4,15c0-0.3,0.1-0.6,0.3-0.9c0.1-0.3,0.3-0.5,0.5-0.6s0.4-0.3,0.7-0.4
		C41.4,13.2,41.7,13.1,42,13.1z"/>
</g>
<g class="st3">
	<path d="M87.4,11.2c0-1.8,0.5-3.2,1.4-4.2c1-1,2.2-1.5,3.7-1.5c1,0,1.9,0.2,2.7,0.7s1.4,1.1,1.8,2c0.4,0.8,0.6,1.8,0.6,2.9
		c0,1.1-0.2,2.1-0.7,2.9s-1.1,1.5-1.9,2c-0.8,0.4-1.7,0.7-2.6,0.7c-1,0-1.9-0.2-2.7-0.7s-1.4-1.2-1.8-2S87.4,12.2,87.4,11.2z
		 M88.8,11.2c0,1.3,0.3,2.3,1,3.1c0.7,0.7,1.6,1.1,2.6,1.1c1.1,0,1.9-0.4,2.6-1.1c0.7-0.8,1-1.8,1-3.2c0-0.9-0.1-1.6-0.4-2.3
		c-0.3-0.7-0.7-1.2-1.3-1.5c-0.6-0.4-1.2-0.5-1.9-0.5c-1,0-1.9,0.3-2.6,1C89.2,8.5,88.8,9.6,88.8,11.2z"/>
</g>
<g class="st3">
	<path class="st4" d="M101.4,13.1c0.3,0,0.6,0,0.9,0.1s0.5,0.2,0.7,0.4s0.3,0.4,0.5,0.6c0.1,0.2,0.2,0.5,0.2,0.8s0,0.5-0.1,0.7
		s-0.2,0.4-0.3,0.7c-0.1,0.2-0.3,0.4-0.5,0.6s-0.4,0.4-0.6,0.6l-1.9,1.9c0.1,0,0.3-0.1,0.4-0.1s0.3,0,0.4,0h2.4c0.1,0,0.2,0,0.2,0.1
		s0.1,0.1,0.1,0.2v0.5H99v-0.3c0-0.1,0-0.1,0-0.2s0.1-0.1,0.1-0.2l2.3-2.3c0.2-0.2,0.4-0.4,0.5-0.6c0.2-0.2,0.3-0.4,0.4-0.5
		c0.1-0.2,0.2-0.4,0.3-0.5c0.1-0.2,0.1-0.4,0.1-0.6c0-0.2,0-0.4-0.1-0.6c-0.1-0.2-0.2-0.3-0.3-0.4c-0.1-0.1-0.3-0.2-0.4-0.2
		c-0.2-0.1-0.3-0.1-0.5-0.1s-0.3,0-0.5,0.1s-0.3,0.1-0.4,0.2c-0.1,0.1-0.2,0.2-0.3,0.3c-0.1,0.1-0.1,0.3-0.2,0.4
		c0,0.1-0.1,0.2-0.1,0.2c-0.1,0-0.1,0.1-0.2,0.1c0,0,0,0-0.1,0c0,0,0,0-0.1,0L99,14.9c0-0.3,0.1-0.6,0.3-0.9
		c0.1-0.3,0.3-0.5,0.5-0.6s0.4-0.3,0.7-0.4C100.8,13.2,101.1,13.1,101.4,13.1z"/>
</g>
</svg>
