<?xml version="1.0" encoding="utf-8"?>
<!-- Generator: Adobe Illustrator 18.1.1, SVG Export Plug-In . SVG Version: 6.00 Build 0)  -->
<svg version="1.1" id="Layer_1" xmlns="http://www.w3.org/2000/svg" xmlns:xlink="http://www.w3.org/1999/xlink" x="0px" y="0px"
	 viewBox="0 0 45.1 112.4" enable-background="new 0 0 45.1 112.4" xml:space="preserve">
<g>
	<path d="M24.1,9.4h-0.6V5.7h-4.9v3.7h-0.6V1.6h0.6v3.6h4.9V1.6h0.6V9.4z"/>
	<path d="M27.2,9.4h-0.6V1.6h0.6V9.4z"/>
	<path d="M33.1,9c0.3,0,0.5,0,0.7,0s0.4-0.1,0.6-0.1c0.2-0.1,0.4-0.1,0.5-0.2c0.2-0.1,0.3-0.2,0.5-0.3V6.3H34c0,0-0.1,0-0.1,0
		c0,0,0-0.1,0-0.1V5.9H36v2.8c-0.2,0.1-0.4,0.3-0.6,0.4S35,9.2,34.7,9.3s-0.5,0.1-0.8,0.2c-0.3,0-0.6,0.1-0.9,0.1
		c-0.6,0-1.1-0.1-1.5-0.3s-0.9-0.5-1.2-0.8C30,8,29.7,7.6,29.5,7.1s-0.3-1-0.3-1.6c0-0.6,0.1-1.1,0.3-1.6C29.7,3.4,30,3,30.3,2.6
		c0.3-0.3,0.7-0.6,1.2-0.8c0.5-0.2,1-0.3,1.6-0.3c0.3,0,0.6,0,0.8,0.1c0.3,0,0.5,0.1,0.7,0.2c0.2,0.1,0.4,0.2,0.6,0.3
		c0.2,0.1,0.4,0.2,0.5,0.4l-0.1,0.2c0,0.1-0.1,0.1-0.1,0.1c0,0-0.1,0-0.1,0c-0.1,0-0.1-0.1-0.2-0.2S35,2.4,34.8,2.3
		s-0.4-0.2-0.7-0.2C33.9,2,33.5,2,33.2,2c-0.5,0-1,0.1-1.4,0.2c-0.4,0.2-0.8,0.4-1,0.7c-0.3,0.3-0.5,0.7-0.7,1.1S29.8,5,29.8,5.5
		c0,0.5,0.1,1,0.2,1.5c0.2,0.4,0.4,0.8,0.7,1.1c0.3,0.3,0.6,0.5,1,0.7C32.2,8.9,32.6,9,33.1,9z"/>
	<path d="M44,9.4h-0.6V5.7h-4.9v3.7H38V1.6h0.6v3.6h4.9V1.6H44V9.4z"/>
</g>
<g>
	<path d="M20.4,109.9h3.7v0.5h-4.3v-7.8h0.6V109.9z"/>
	<path d="M31.9,106.5c0,0.6-0.1,1.1-0.3,1.6c-0.2,0.5-0.4,0.9-0.8,1.3c-0.3,0.3-0.7,0.6-1.2,0.8c-0.5,0.2-1,0.3-1.5,0.3
		c-0.5,0-1-0.1-1.5-0.3c-0.5-0.2-0.8-0.5-1.2-0.8c-0.3-0.3-0.6-0.8-0.8-1.3c-0.2-0.5-0.3-1-0.3-1.6c0-0.6,0.1-1.1,0.3-1.6
		c0.2-0.5,0.4-0.9,0.8-1.3c0.3-0.3,0.7-0.6,1.2-0.8c0.5-0.2,1-0.3,1.5-0.3c0.6,0,1.1,0.1,1.5,0.3c0.5,0.2,0.8,0.5,1.2,0.8
		c0.3,0.3,0.6,0.8,0.8,1.3C31.8,105.4,31.9,105.9,31.9,106.5z M31.3,106.5c0-0.5-0.1-1-0.2-1.5s-0.4-0.8-0.6-1.1s-0.6-0.5-1-0.7
		c-0.4-0.2-0.8-0.2-1.3-0.2c-0.5,0-0.9,0.1-1.3,0.2c-0.4,0.2-0.7,0.4-1,0.7c-0.3,0.3-0.5,0.7-0.6,1.1s-0.2,0.9-0.2,1.5
		c0,0.5,0.1,1,0.2,1.5s0.4,0.8,0.6,1.1c0.3,0.3,0.6,0.5,1,0.7c0.4,0.2,0.8,0.2,1.3,0.2c0.5,0,0.9-0.1,1.3-0.2s0.7-0.4,1-0.7
		s0.5-0.7,0.6-1.1S31.3,107,31.3,106.5z"/>
	<path d="M32.7,102.6h0.5c0.1,0,0.2,0,0.2,0.1l2,6.4c0,0.1,0,0.2,0.1,0.2s0,0.2,0.1,0.3c0-0.1,0-0.2,0.1-0.3c0-0.1,0-0.2,0.1-0.2
		l2.2-6.4c0,0,0-0.1,0.1-0.1c0,0,0.1,0,0.1,0h0.2c0.1,0,0.1,0,0.1,0s0.1,0.1,0.1,0.1l2.2,6.4c0,0.1,0,0.2,0.1,0.2s0,0.2,0.1,0.3
		c0-0.1,0-0.2,0-0.3s0-0.2,0.1-0.2l2-6.4c0,0,0-0.1,0.1-0.1c0,0,0.1,0,0.1,0h0.4l-2.4,7.8h-0.5l-2.3-6.8c0-0.1-0.1-0.2-0.1-0.3
		c0,0.1,0,0.2-0.1,0.3l-2.3,6.8h-0.5L32.7,102.6z"/>
</g>
<linearGradient id="SVGID_1_" gradientUnits="userSpaceOnUse" x1="31.0576" y1="99.3911" x2="31.0576" y2="12.3911">
	<stop  offset="0" style="stop-color:#FFFFFF"/>
	<stop  offset="1" style="stop-color:#F30006"/>
</linearGradient>
<rect x="22.1" y="12.4" fill="url(#SVGID_1_)" stroke="#999999" stroke-miterlimit="10" width="18" height="87"/>
<g>
	<path d="M6.6,97.1v-0.6c0-0.1,0-0.2,0-0.2c0-0.1,0-0.1,0-0.2c0-0.1,0-0.1-0.1-0.2c0,0-0.1-0.1-0.1-0.1l-4.1-4
		c-0.1-0.1-0.1-0.1-0.2-0.2s0-0.1,0-0.2v-0.6l4.4,4.3c0.1,0.1,0.2,0.2,0.2,0.2c0.1,0.1,0.1,0.1,0.1,0.2c0-0.1,0.1-0.2,0.1-0.3
		C7,95.2,7.1,95.1,7.2,95l4.8-4.6v0.6c0,0.1,0,0.2-0.1,0.3c0,0.1-0.1,0.1-0.1,0.2l-4.3,4.2c-0.1,0.1-0.1,0.1-0.1,0.1
		s-0.1,0.1-0.1,0.1s0,0.1-0.1,0.2s0,0.2,0,0.3v0.6H12v0.7H2v-0.7H6.6z"/>
	<path d="M2.6,87.9c0.1,0,0.2,0,0.2,0.1C2.9,88,3,88.1,3,88.1c0.1,0.1,0.1,0.1,0.1,0.2s0,0.2,0,0.2s0,0.2,0,0.2
		c0,0.1-0.1,0.1-0.1,0.2C3,89,2.9,89.1,2.8,89.1s-0.2,0-0.2,0s-0.2,0-0.2,0S2.2,89,2.1,89S2,88.9,2,88.8c0-0.1,0-0.2,0-0.2
		s0-0.2,0-0.2c0-0.1,0.1-0.1,0.1-0.2C2.2,88.1,2.3,88,2.3,88C2.4,87.9,2.5,87.9,2.6,87.9z M5,88.2h7v0.7H5V88.2z"/>
	<path d="M12,85.8H5v-0.4c0-0.1,0.1-0.2,0.2-0.2l1-0.1c-0.4-0.3-0.7-0.7-1-1.1s-0.4-0.9-0.4-1.4c0-0.4,0.1-0.7,0.2-1
		c0.1-0.3,0.3-0.5,0.5-0.7c0.2-0.2,0.5-0.3,0.8-0.4s0.7-0.1,1.1-0.1H12v0.7H7.5c-0.7,0-1.2,0.1-1.5,0.4c-0.4,0.3-0.6,0.8-0.6,1.4
		c0,0.5,0.1,0.9,0.4,1.3c0.2,0.4,0.6,0.7,1,1.1H12V85.8z"/>
	<path d="M4.9,75.6c0-0.4,0.1-0.8,0.2-1.1c0.1-0.3,0.3-0.6,0.6-0.9c0.3-0.2,0.6-0.4,1-0.6s0.8-0.2,1.3-0.2c0.1,0,0.2,0,0.2,0
		c0,0,0.1,0.1,0.1,0.1v5h0.1c0.5,0,1-0.1,1.4-0.2c0.4-0.1,0.7-0.3,1-0.5s0.5-0.5,0.6-0.8c0.1-0.3,0.2-0.7,0.2-1.1
		c0-0.4,0-0.7-0.1-0.9c-0.1-0.3-0.2-0.5-0.3-0.6c-0.1-0.2-0.2-0.3-0.3-0.4s-0.1-0.2-0.1-0.2c0-0.1,0-0.1,0.1-0.1l0.2-0.2
		c0.1,0.1,0.3,0.3,0.4,0.4c0.1,0.2,0.2,0.4,0.3,0.6c0.1,0.2,0.2,0.5,0.2,0.7C12,75,12,75.2,12,75.5c0,0.5-0.1,0.9-0.2,1.3
		s-0.4,0.7-0.7,1c-0.3,0.3-0.7,0.5-1.2,0.7c-0.5,0.2-1,0.2-1.6,0.2c-0.5,0-1-0.1-1.4-0.2c-0.4-0.1-0.8-0.3-1.1-0.6
		c-0.3-0.3-0.5-0.6-0.7-1C5,76.5,4.9,76,4.9,75.6z M5.4,75.5c0,0.4,0.1,0.7,0.2,1C5.7,76.8,5.8,77,6,77.2s0.5,0.4,0.8,0.5
		c0.3,0.1,0.6,0.2,1,0.3v-4.6c-0.4,0-0.7,0.1-1,0.2C6.5,73.7,6.2,73.8,6,74c-0.2,0.2-0.4,0.4-0.5,0.7C5.4,74.9,5.4,75.2,5.4,75.5z"
		/>
	<path d="M12.1,69.1c0,0.5-0.1,0.8-0.4,1.1c-0.3,0.3-0.7,0.4-1.2,0.4H5.7v1c0,0.1,0,0.1,0,0.1c0,0-0.1,0-0.1,0H5.3l-0.1-1.2
		l-2.5-0.2c0,0-0.1,0-0.1-0.1c0,0,0-0.1,0-0.1V70h2.7v-2.2h0.5V70h4.7c0.2,0,0.4,0,0.5-0.1s0.3-0.1,0.3-0.2c0.1-0.1,0.2-0.2,0.2-0.3
		c0-0.1,0.1-0.2,0.1-0.4c0-0.2,0-0.3-0.1-0.4c0-0.1-0.1-0.2-0.2-0.3s-0.1-0.2-0.2-0.2S11,67.9,11,67.9c0,0,0-0.1,0.1-0.1l0.3-0.2
		c0.2,0.2,0.4,0.4,0.5,0.7C12,68.6,12.1,68.8,12.1,69.1z"/>
	<path d="M2.6,64.9c0.1,0,0.2,0,0.2,0.1S3,65,3,65.1c0.1,0.1,0.1,0.1,0.1,0.2c0,0.1,0,0.2,0,0.2s0,0.2,0,0.2c0,0.1-0.1,0.1-0.1,0.2
		C3,66,2.9,66,2.8,66.1c-0.1,0-0.2,0-0.2,0s-0.2,0-0.2,0c-0.1,0-0.1-0.1-0.2-0.1C2.1,65.9,2,65.8,2,65.7c0-0.1,0-0.2,0-0.2
		s0-0.2,0-0.2c0-0.1,0.1-0.1,0.1-0.2C2.2,65,2.3,65,2.3,64.9S2.5,64.9,2.6,64.9z M5,65.2h7v0.7H5V65.2z"/>
	<path d="M5.9,58.1C5.9,58.1,6,58.2,5.9,58.1C6,58.2,6,58.2,6,58.3c0,0,0,0.1-0.1,0.2c-0.1,0.1-0.1,0.2-0.2,0.3
		c-0.1,0.1-0.1,0.3-0.2,0.5c-0.1,0.2-0.1,0.4-0.1,0.7c0,0.4,0.1,0.8,0.2,1.1c0.1,0.3,0.3,0.6,0.6,0.8c0.3,0.2,0.6,0.4,1,0.5
		s0.8,0.2,1.3,0.2c0.5,0,0.9-0.1,1.3-0.2s0.7-0.3,1-0.5s0.5-0.5,0.6-0.8s0.2-0.6,0.2-1c0-0.3,0-0.6-0.1-0.8s-0.2-0.4-0.3-0.6
		c-0.1-0.1-0.2-0.3-0.3-0.4c-0.1-0.1-0.1-0.2-0.1-0.2c0-0.1,0-0.1,0.1-0.1l0.2-0.2c0.1,0.1,0.3,0.2,0.4,0.4s0.2,0.3,0.3,0.6
		c0.1,0.2,0.2,0.4,0.2,0.7S12,60,12,60.2c0,0.4-0.1,0.8-0.2,1.2s-0.4,0.7-0.7,0.9S10.4,62.9,10,63c-0.4,0.1-0.9,0.2-1.5,0.2
		c-0.5,0-1-0.1-1.5-0.2c-0.4-0.1-0.8-0.3-1.1-0.6c-0.3-0.3-0.6-0.6-0.7-1s-0.3-0.8-0.3-1.3c0-0.5,0.1-0.9,0.2-1.2s0.3-0.7,0.6-0.9
		L5.9,58.1z"/>
	<path d="M2,47.4h0.6v5.2h4v-4.3h0.6v4.3h4.1v-5.2H12v5.9H2V47.4z"/>
	<path d="M12,45.4H5V45c0-0.1,0.1-0.2,0.2-0.2l1-0.1c-0.4-0.3-0.7-0.7-1-1.1c-0.2-0.4-0.4-0.9-0.4-1.4c0-0.4,0.1-0.7,0.2-1
		c0.1-0.3,0.3-0.5,0.5-0.7c0.2-0.2,0.5-0.3,0.8-0.4s0.7-0.1,1.1-0.1H12v0.7H7.5c-0.7,0-1.2,0.1-1.5,0.4s-0.6,0.8-0.6,1.4
		c0,0.5,0.1,0.9,0.4,1.3c0.2,0.4,0.6,0.7,1,1H12V45.4z"/>
	<path d="M4.9,35.2c0-0.4,0.1-0.8,0.2-1.1c0.1-0.3,0.3-0.6,0.6-0.9s0.6-0.4,1-0.6s0.8-0.2,1.3-0.2c0.1,0,0.2,0,0.2,0
		c0,0,0.1,0.1,0.1,0.1v5h0.1c0.5,0,1-0.1,1.4-0.2c0.4-0.1,0.7-0.3,1-0.5c0.3-0.2,0.5-0.5,0.6-0.8c0.1-0.3,0.2-0.7,0.2-1.1
		c0-0.3,0-0.7-0.1-0.9c-0.1-0.3-0.2-0.5-0.3-0.6c-0.1-0.2-0.2-0.3-0.3-0.4s-0.1-0.2-0.1-0.2c0-0.1,0-0.1,0.1-0.1l0.2-0.2
		c0.1,0.1,0.3,0.3,0.4,0.4s0.2,0.4,0.3,0.6c0.1,0.2,0.2,0.5,0.2,0.7c0.1,0.3,0.1,0.5,0.1,0.8c0,0.5-0.1,0.9-0.2,1.3
		c-0.2,0.4-0.4,0.7-0.7,1c-0.3,0.3-0.7,0.5-1.2,0.7c-0.5,0.2-1,0.2-1.6,0.2c-0.5,0-1-0.1-1.4-0.2c-0.4-0.1-0.8-0.3-1.1-0.6
		s-0.5-0.6-0.7-1C5,36.1,4.9,35.7,4.9,35.2z M5.4,35.2c0,0.4,0.1,0.7,0.2,1c0.1,0.3,0.3,0.5,0.5,0.7s0.5,0.4,0.8,0.5
		c0.3,0.1,0.6,0.2,1,0.3V33c-0.4,0-0.7,0.1-1,0.2c-0.3,0.1-0.5,0.2-0.8,0.4c-0.2,0.2-0.4,0.4-0.5,0.7S5.4,34.8,5.4,35.2z"/>
	<path d="M12,30.6H5v-0.4c0-0.1,0-0.1,0-0.2c0,0,0.1-0.1,0.2-0.1L6.7,30c-0.6-0.2-1-0.5-1.3-0.9c-0.3-0.4-0.5-0.8-0.5-1.4
		c0-0.2,0-0.4,0.1-0.6C5,27,5,26.8,5.1,26.6l0.5,0.1c0.1,0,0.1,0.1,0.1,0.1c0,0,0,0.1,0,0.1c0,0.1,0,0.1-0.1,0.2
		c0,0.1,0,0.2-0.1,0.3c0,0.1,0,0.2,0,0.4c0,0.5,0.2,1,0.5,1.3c0.3,0.3,0.8,0.6,1.4,0.8H12V30.6z"/>
	<path d="M4.9,22.8c0-0.3,0-0.6,0.1-0.8s0.2-0.5,0.3-0.7v-1.8h0.2c0.1,0,0.2,0.1,0.2,0.2l0.1,1.1c0.2-0.1,0.4-0.2,0.6-0.3
		c0.2-0.1,0.5-0.1,0.7-0.1c0.3,0,0.6,0.1,0.9,0.2c0.3,0.1,0.5,0.3,0.7,0.5s0.3,0.5,0.5,0.8c0.1,0.3,0.2,0.6,0.2,1
		c0,0.4-0.1,0.8-0.2,1.1c0.1,0.2,0.2,0.3,0.4,0.5c0.2,0.1,0.3,0.2,0.4,0.2c0.2,0,0.4-0.1,0.5-0.2s0.2-0.3,0.2-0.6
		c0-0.2,0.1-0.5,0.1-0.8c0-0.3,0-0.6,0-0.9c0-0.3,0-0.6,0.1-0.9c0-0.3,0.1-0.6,0.2-0.8c0.1-0.2,0.3-0.4,0.4-0.6
		c0.2-0.1,0.4-0.2,0.8-0.2c0.3,0,0.6,0.1,0.8,0.2c0.3,0.1,0.5,0.4,0.7,0.6c0.2,0.3,0.4,0.6,0.5,1c0.1,0.4,0.2,0.8,0.2,1.3
		c0,0.5-0.1,0.9-0.2,1.3c-0.1,0.4-0.2,0.7-0.4,0.9c-0.2,0.2-0.4,0.4-0.6,0.6s-0.5,0.2-0.7,0.2c-0.4,0-0.7-0.1-1-0.4
		c-0.3-0.2-0.5-0.6-0.6-1c-0.1,0.2-0.2,0.4-0.3,0.6c-0.1,0.1-0.4,0.2-0.6,0.2c-0.1,0-0.2,0-0.3-0.1c-0.1,0-0.2-0.1-0.3-0.2
		c-0.1-0.1-0.2-0.2-0.3-0.3c-0.1-0.1-0.2-0.2-0.3-0.4c-0.2,0.3-0.4,0.6-0.8,0.8c-0.3,0.2-0.7,0.3-1.1,0.3c-0.3,0-0.6-0.1-0.9-0.2
		c-0.3-0.1-0.5-0.3-0.7-0.5c-0.2-0.2-0.3-0.5-0.5-0.8C4.9,23.5,4.9,23.2,4.9,22.8z M8.9,22.8c0-0.3,0-0.6-0.1-0.8
		c-0.1-0.2-0.2-0.4-0.4-0.6C8.2,21.2,8,21.1,7.8,21c-0.2-0.1-0.5-0.1-0.7-0.1c-0.3,0-0.5,0-0.7,0.1c-0.2,0.1-0.4,0.2-0.6,0.4
		c-0.2,0.2-0.3,0.4-0.4,0.6c-0.1,0.2-0.1,0.5-0.1,0.8s0,0.6,0.1,0.8s0.2,0.4,0.4,0.6c0.2,0.2,0.3,0.3,0.6,0.4
		c0.2,0.1,0.5,0.1,0.7,0.1c0.3,0,0.5,0,0.7-0.1c0.2-0.1,0.4-0.2,0.6-0.4c0.2-0.2,0.3-0.4,0.4-0.6C8.8,23.3,8.9,23.1,8.9,22.8z
		 M12.4,20.2c-0.2,0-0.4,0.1-0.5,0.2c-0.1,0.1-0.2,0.3-0.3,0.5c-0.1,0.2-0.1,0.4-0.2,0.7c0,0.2-0.1,0.5-0.1,0.8s0,0.5,0,0.8
		s0,0.5-0.1,0.8c0.1,0.2,0.2,0.3,0.2,0.5s0.2,0.3,0.3,0.4s0.2,0.2,0.4,0.3s0.3,0.1,0.5,0.1c0.2,0,0.4-0.1,0.6-0.2
		c0.2-0.1,0.3-0.3,0.5-0.5c0.1-0.2,0.2-0.5,0.3-0.7c0.1-0.3,0.1-0.6,0.1-1c0-0.4,0-0.7-0.1-1c-0.1-0.3-0.2-0.6-0.3-0.8
		c-0.1-0.2-0.3-0.4-0.5-0.5C12.9,20.3,12.7,20.2,12.4,20.2z"/>
	<path d="M14.2,16.5c0.1,0,0.1,0.1,0.2,0.1c0,0,0.1,0.1,0.1,0.2v0.5L11.7,16L5,19v-0.6c0-0.1,0-0.1,0.1-0.2c0,0,0.1-0.1,0.1-0.1
		l5.4-2.3c0.1,0,0.1-0.1,0.2-0.1c0.1,0,0.1,0,0.2-0.1c-0.1,0-0.1,0-0.2-0.1c-0.1,0-0.1-0.1-0.2-0.1l-5.4-2.3c-0.1,0-0.1-0.1-0.1-0.1
		s0-0.1,0-0.1v-0.5L14.2,16.5z"/>
</g>
</svg>
