<?xml version="1.0" encoding="utf-8"?>
<!-- Generator: Adobe Illustrator 18.1.1, SVG Export Plug-In . SVG Version: 6.00 Build 0)  -->
<svg version="1.1" id="Layer_1" xmlns="http://www.w3.org/2000/svg" xmlns:xlink="http://www.w3.org/1999/xlink" x="0px" y="0px"
	 width="47" height="114" viewBox="0 0 42.4 109.1" enable-background="new 0 0 42.4 109.1" xml:space="preserve">
<g>
	<path d="M22.6,8h-1.1V4.4h-4.2V8h-1.1V0.1h1.1v3.5h4.2V0.1h1.1V8z"/>
	<path d="M25.8,8h-1.1V0.1h1.1V8z"/>
	<path d="M31.4,7.2c0.2,0,0.4,0,0.6,0c0.2,0,0.3-0.1,0.5-0.1C32.7,7,32.8,7,33,6.9c0.1-0.1,0.3-0.1,0.4-0.2V5h-1.2
		C32.1,5,32,5,32,4.9c0,0-0.1-0.1-0.1-0.1V4.2h2.4v3c-0.2,0.1-0.4,0.3-0.6,0.4c-0.2,0.1-0.4,0.2-0.7,0.3C32.8,7.9,32.6,8,32.3,8
		c-0.3,0-0.6,0.1-0.9,0.1c-0.6,0-1.1-0.1-1.6-0.3c-0.5-0.2-0.9-0.5-1.2-0.8s-0.6-0.8-0.8-1.3c-0.2-0.5-0.3-1-0.3-1.6
		c0-0.6,0.1-1.1,0.3-1.6s0.5-0.9,0.8-1.3c0.3-0.4,0.8-0.6,1.3-0.8C30.3,0.1,30.9,0,31.5,0c0.3,0,0.6,0,0.9,0.1s0.5,0.1,0.7,0.2
		c0.2,0.1,0.4,0.2,0.6,0.3c0.2,0.1,0.4,0.3,0.5,0.4L34,1.5c-0.1,0.1-0.1,0.1-0.2,0.1c-0.1,0-0.1,0-0.2-0.1c-0.1-0.1-0.2-0.1-0.3-0.2
		S33,1.2,32.8,1.2S32.5,1,32.3,1c-0.2,0-0.5-0.1-0.8-0.1c-0.4,0-0.8,0.1-1.2,0.2c-0.4,0.1-0.7,0.4-0.9,0.6s-0.4,0.6-0.6,1
		c-0.1,0.4-0.2,0.8-0.2,1.3c0,0.5,0.1,0.9,0.2,1.3c0.1,0.4,0.3,0.7,0.6,1c0.3,0.3,0.6,0.5,0.9,0.6C30.6,7.1,31,7.2,31.4,7.2z"/>
	<path d="M42.4,8h-1.1V4.4h-4.2V8H36V0.1h1.1v3.5h4.2V0.1h1.1V8z"/>
</g>
<g>
	<path d="M18.7,108.1h3.4v0.9h-4.5v-7.9h1.1V108.1z"/>
	<path d="M30.2,105c0,0.6-0.1,1.1-0.3,1.6c-0.2,0.5-0.5,0.9-0.8,1.3c-0.3,0.4-0.8,0.6-1.2,0.8c-0.5,0.2-1,0.3-1.6,0.3
		c-0.6,0-1.1-0.1-1.6-0.3c-0.5-0.2-0.9-0.5-1.2-0.8c-0.3-0.4-0.6-0.8-0.8-1.3c-0.2-0.5-0.3-1-0.3-1.6s0.1-1.1,0.3-1.6
		c0.2-0.5,0.5-0.9,0.8-1.3c0.3-0.4,0.8-0.6,1.2-0.8c0.5-0.2,1-0.3,1.6-0.3c0.6,0,1.1,0.1,1.6,0.3c0.5,0.2,0.9,0.5,1.2,0.8
		s0.6,0.8,0.8,1.3C30.1,103.9,30.2,104.4,30.2,105z M29.1,105c0-0.5-0.1-0.9-0.2-1.3c-0.1-0.4-0.3-0.7-0.6-1
		c-0.2-0.3-0.5-0.5-0.9-0.6s-0.7-0.2-1.2-0.2c-0.4,0-0.8,0.1-1.1,0.2s-0.6,0.3-0.9,0.6c-0.2,0.3-0.4,0.6-0.6,1
		c-0.1,0.4-0.2,0.8-0.2,1.3s0.1,0.9,0.2,1.3s0.3,0.7,0.6,1c0.2,0.3,0.5,0.5,0.9,0.6s0.7,0.2,1.1,0.2c0.4,0,0.8-0.1,1.2-0.2
		s0.6-0.3,0.9-0.6c0.2-0.3,0.4-0.6,0.6-1C29,105.9,29.1,105.5,29.1,105z"/>
	<path d="M30.8,101.1h0.9c0.1,0,0.2,0,0.2,0.1c0.1,0,0.1,0.1,0.1,0.2l1.6,5.5c0,0.1,0.1,0.2,0.1,0.3s0,0.2,0.1,0.4
		c0-0.1,0.1-0.2,0.1-0.4c0-0.1,0.1-0.2,0.1-0.3l1.9-5.5c0-0.1,0.1-0.1,0.1-0.2c0.1-0.1,0.1-0.1,0.2-0.1h0.3c0.1,0,0.2,0,0.2,0.1
		c0.1,0,0.1,0.1,0.1,0.2l1.8,5.5c0.1,0.2,0.1,0.4,0.2,0.7c0-0.1,0-0.2,0.1-0.3c0-0.1,0-0.2,0.1-0.3l1.6-5.5c0-0.1,0.1-0.1,0.1-0.2
		c0.1-0.1,0.1-0.1,0.2-0.1h0.8l-2.5,7.9h-1l-2-6c0-0.1-0.1-0.2-0.1-0.4c0,0.1,0,0.1-0.1,0.2c0,0.1,0,0.1-0.1,0.2l-2,6h-1L30.8,101.1
		z"/>
</g>
<linearGradient id="SVGID_1_" gradientUnits="userSpaceOnUse" x1="29.3184" y1="97.9697" x2="29.3184" y2="10.9697">
	<stop  offset="0" style="stop-color:#FFFFFF"/>
	<stop  offset="1" style="stop-color:#F30006"/>
</linearGradient>
<rect x="20.3" y="11" fill="url(#SVGID_1_)" stroke="#999999" stroke-miterlimit="10" width="18" height="87"/>
<g>
	<path d="M4.6,96.5V96c0-0.2,0-0.3-0.1-0.4s-0.1-0.2-0.2-0.3l-3.8-3.3c-0.1-0.1-0.2-0.2-0.2-0.3c0-0.1-0.1-0.2-0.1-0.4v-1.2l4.3,3.8
		c0.1,0.1,0.2,0.2,0.3,0.3c0.1,0.1,0.1,0.2,0.2,0.3c0-0.1,0.1-0.2,0.2-0.3c0.1-0.1,0.2-0.2,0.3-0.3l4.8-4V91c0,0.1,0,0.2,0,0.2
		c0,0.1,0,0.1-0.1,0.2c0,0-0.1,0.1-0.1,0.1c0,0-0.1,0.1-0.1,0.1l-4,3.5c-0.1,0.1-0.1,0.1-0.1,0.1c0,0-0.1,0.1-0.1,0.2
		c0,0.1,0,0.1-0.1,0.2c0,0.1,0,0.2,0,0.3v0.6h4.6v1.4h-10v-1.4H4.6z"/>
	<path d="M0.9,87c0.1,0,0.2,0,0.3,0.1c0.1,0,0.2,0.1,0.3,0.2s0.1,0.2,0.2,0.3c0,0.1,0.1,0.2,0.1,0.3c0,0.1,0,0.2-0.1,0.3
		s-0.1,0.2-0.2,0.3s-0.2,0.1-0.3,0.2c-0.1,0-0.2,0.1-0.3,0.1c-0.1,0-0.2,0-0.3-0.1c-0.1,0-0.2-0.1-0.3-0.2s-0.1-0.2-0.2-0.3
		S0,88,0,87.9c0-0.1,0-0.2,0.1-0.3c0-0.1,0.1-0.2,0.2-0.3s0.2-0.1,0.3-0.2C0.7,87,0.8,87,0.9,87z M3.1,87.3h7.1v1.2H3.1V87.3z"/>
	<path d="M10.2,85.1H3.1v-0.7c0-0.2,0.1-0.3,0.3-0.3l0.8-0.1c-0.3-0.3-0.6-0.7-0.8-1S3,82.1,3,81.6c0-0.4,0.1-0.7,0.2-1
		c0.1-0.3,0.3-0.5,0.5-0.7c0.2-0.2,0.5-0.3,0.9-0.5c0.3-0.1,0.7-0.2,1.1-0.2h4.5v1.2H5.7c-0.5,0-1,0.1-1.2,0.4C4.2,81,4,81.4,4,81.9
		c0,0.4,0.1,0.7,0.3,1c0.2,0.3,0.4,0.6,0.7,0.9h5.2V85.1z"/>
	<path d="M3,74.5c0-0.4,0.1-0.8,0.2-1.2s0.3-0.7,0.6-0.9s0.6-0.5,1-0.6s0.8-0.2,1.3-0.2c0.2,0,0.3,0,0.4,0.1s0.1,0.1,0.1,0.2v4.7
		c0.4,0,0.8-0.1,1.2-0.2c0.3-0.1,0.6-0.3,0.8-0.5s0.4-0.4,0.5-0.7c0.1-0.3,0.2-0.6,0.2-0.9c0-0.3,0-0.6-0.1-0.8
		c-0.1-0.2-0.2-0.4-0.2-0.6c-0.1-0.2-0.2-0.3-0.2-0.4c-0.1-0.1-0.1-0.2-0.1-0.3c0-0.1,0-0.2,0.1-0.2l0.5-0.4
		c0.2,0.2,0.3,0.3,0.5,0.6c0.1,0.2,0.2,0.4,0.3,0.7s0.2,0.5,0.2,0.8c0,0.3,0.1,0.5,0.1,0.8c0,0.5-0.1,0.9-0.2,1.4
		c-0.2,0.4-0.4,0.8-0.7,1.1c-0.3,0.3-0.7,0.5-1.2,0.7c-0.5,0.2-1,0.3-1.6,0.3c-0.5,0-1-0.1-1.4-0.2c-0.4-0.2-0.8-0.4-1.1-0.7
		c-0.3-0.3-0.6-0.6-0.7-1S3,75,3,74.5z M3.9,74.5c0,0.6,0.2,1.1,0.5,1.4s0.8,0.6,1.4,0.6v-3.9c-0.3,0-0.6,0-0.8,0.1
		c-0.2,0.1-0.4,0.2-0.6,0.3c-0.2,0.2-0.3,0.3-0.4,0.6C4,73.9,3.9,74.2,3.9,74.5z"/>
	<path d="M10.3,67.8c0,0.6-0.2,1-0.5,1.3c-0.3,0.3-0.8,0.5-1.4,0.5H4.2v0.9c0,0.1,0,0.1-0.1,0.2c0,0.1-0.1,0.1-0.2,0.1H3.4l-0.1-1.2
		l-2.2-0.3c-0.1,0-0.1,0-0.2-0.1c0-0.1-0.1-0.1-0.1-0.2v-0.6h2.4v-2h0.9v2h4.3c0.3,0,0.5-0.1,0.7-0.2s0.2-0.3,0.2-0.6
		c0-0.1,0-0.2-0.1-0.3c0-0.1-0.1-0.2-0.1-0.2S9.1,66.8,9,66.8S9,66.7,9,66.6c0-0.1,0-0.1,0.1-0.2l0.6-0.4c0.2,0.2,0.4,0.5,0.5,0.8
		C10.3,67.2,10.3,67.5,10.3,67.8z"/>
	<path d="M0.9,63.1c0.1,0,0.2,0,0.3,0.1c0.1,0,0.2,0.1,0.3,0.2c0.1,0.1,0.1,0.2,0.2,0.3s0.1,0.2,0.1,0.3s0,0.2-0.1,0.3
		c0,0.1-0.1,0.2-0.2,0.3c-0.1,0.1-0.2,0.1-0.3,0.2c-0.1,0-0.2,0.1-0.3,0.1c-0.1,0-0.2,0-0.3-0.1c-0.1,0-0.2-0.1-0.3-0.2
		c-0.1-0.1-0.1-0.2-0.2-0.3C0,64.2,0,64.1,0,64s0-0.2,0.1-0.3s0.1-0.2,0.2-0.3c0.1-0.1,0.2-0.1,0.3-0.2S0.8,63.1,0.9,63.1z
		 M3.1,63.4h7.1v1.2H3.1V63.4z"/>
	<path d="M4.4,56.3c0.1,0,0.1,0.1,0.1,0.1s0,0.1,0,0.2s0,0.1-0.1,0.2c-0.1,0.1-0.1,0.2-0.2,0.3c-0.1,0.1-0.1,0.3-0.2,0.5
		C4,57.8,4,58,4,58.2c0,0.3,0.1,0.7,0.2,0.9c0.1,0.3,0.3,0.5,0.5,0.7s0.5,0.3,0.8,0.4c0.3,0.1,0.7,0.1,1.1,0.1c0.4,0,0.8,0,1.1-0.1
		c0.3-0.1,0.6-0.2,0.8-0.4c0.2-0.2,0.4-0.4,0.5-0.6c0.1-0.3,0.2-0.5,0.2-0.9c0-0.3,0-0.6-0.1-0.7c-0.1-0.2-0.2-0.4-0.2-0.5
		c-0.1-0.1-0.2-0.2-0.2-0.3s-0.1-0.2-0.1-0.3c0-0.1,0-0.2,0.1-0.2l0.5-0.3c0.4,0.3,0.7,0.7,0.8,1.2s0.3,1,0.3,1.5
		c0,0.4-0.1,0.9-0.2,1.2c-0.2,0.4-0.4,0.7-0.7,1s-0.7,0.5-1.1,0.7c-0.5,0.2-1,0.2-1.5,0.2c-0.5,0-1-0.1-1.5-0.2
		c-0.4-0.1-0.8-0.4-1.2-0.6c-0.3-0.3-0.6-0.6-0.8-1C3.1,59.3,3,58.9,3,58.3c0-0.5,0.1-0.9,0.2-1.3s0.4-0.7,0.7-1L4.4,56.3z"/>
	<path d="M0.2,45.5h1.1v4.8h3.3v-3.9h1.1v3.9h3.4v-4.8h1.1v6.2h-10V45.5z"/>
	<path d="M10.2,43.8H3.1V43c0-0.2,0.1-0.3,0.3-0.3l0.8-0.1c-0.3-0.3-0.6-0.7-0.8-1C3.1,41.2,3,40.8,3,40.3c0-0.4,0.1-0.7,0.2-1
		c0.1-0.3,0.3-0.5,0.5-0.7C4,38.3,4.3,38.1,4.6,38c0.3-0.1,0.7-0.2,1.1-0.2h4.5v1.2H5.7c-0.5,0-1,0.1-1.2,0.4
		C4.2,39.7,4,40.1,4,40.6c0,0.4,0.1,0.7,0.3,1C4.4,42,4.7,42.3,5,42.5h5.2V43.8z"/>
	<path d="M3,33.2c0-0.4,0.1-0.8,0.2-1.2s0.3-0.7,0.6-0.9c0.3-0.3,0.6-0.5,1-0.6c0.4-0.1,0.8-0.2,1.3-0.2c0.2,0,0.3,0,0.4,0.1
		s0.1,0.1,0.1,0.2v4.7c0.4,0,0.8-0.1,1.2-0.2c0.3-0.1,0.6-0.3,0.8-0.5c0.2-0.2,0.4-0.4,0.5-0.7c0.1-0.3,0.2-0.6,0.2-0.9
		c0-0.3,0-0.6-0.1-0.8S9.1,31.8,9,31.6c-0.1-0.2-0.2-0.3-0.2-0.4S8.6,31,8.6,30.9c0-0.1,0-0.2,0.1-0.2l0.5-0.3
		c0.2,0.2,0.3,0.3,0.5,0.6s0.2,0.4,0.3,0.7s0.2,0.5,0.2,0.8c0,0.3,0.1,0.5,0.1,0.8c0,0.5-0.1,0.9-0.2,1.4c-0.2,0.4-0.4,0.8-0.7,1.1
		c-0.3,0.3-0.7,0.5-1.2,0.7c-0.5,0.2-1,0.3-1.6,0.3c-0.5,0-1-0.1-1.4-0.2c-0.4-0.2-0.8-0.4-1.1-0.7c-0.3-0.3-0.6-0.6-0.7-1
		C3.1,34.2,3,33.7,3,33.2z M3.9,33.2c0,0.6,0.2,1.1,0.5,1.4c0.3,0.3,0.8,0.6,1.4,0.6v-3.9c-0.3,0-0.6,0-0.8,0.1
		c-0.2,0.1-0.4,0.2-0.6,0.4c-0.2,0.2-0.3,0.3-0.4,0.6S3.9,32.9,3.9,33.2z"/>
	<path d="M10.2,28.7H3.1v-0.7c0-0.1,0-0.2,0.1-0.3c0.1-0.1,0.1-0.1,0.3-0.1l1.1-0.1c-0.5-0.2-0.9-0.5-1.2-0.9
		C3.1,26.2,3,25.8,3,25.3c0-0.2,0-0.4,0.1-0.5c0-0.2,0.1-0.3,0.2-0.4l0.9,0.2c0.1,0,0.2,0.1,0.2,0.2c0,0.1,0,0.2-0.1,0.3
		c0,0.1-0.1,0.3-0.1,0.6c0,0.4,0.1,0.8,0.4,1.1c0.3,0.3,0.6,0.5,1.1,0.7h4.5V28.7z"/>
	<path d="M3,20.6c0-0.3,0-0.6,0.1-0.9s0.2-0.5,0.3-0.7v-1.9h0.5c0.2,0,0.3,0.1,0.3,0.3l0.1,0.8c0.3-0.2,0.6-0.2,1-0.2
		c0.3,0,0.7,0.1,0.9,0.2c0.3,0.1,0.5,0.3,0.7,0.6s0.4,0.5,0.5,0.8s0.2,0.7,0.2,1.1c0,0.3,0,0.6-0.1,0.9c0.1,0.1,0.2,0.3,0.3,0.3
		C7.9,22,8,22,8.1,22c0.2,0,0.3-0.1,0.4-0.2c0.1-0.1,0.2-0.3,0.2-0.5c0-0.2,0.1-0.5,0.1-0.8c0-0.3,0-0.6,0-0.9c0-0.3,0-0.6,0.1-0.9
		C8.9,18.5,9,18.2,9.1,18c0.1-0.2,0.3-0.4,0.5-0.5c0.2-0.1,0.5-0.2,0.8-0.2c0.3,0,0.6,0.1,0.9,0.2c0.3,0.2,0.5,0.4,0.8,0.7
		c0.2,0.3,0.4,0.6,0.5,1c0.1,0.4,0.2,0.9,0.2,1.4c0,0.5-0.1,1-0.2,1.4c-0.1,0.4-0.2,0.7-0.4,1s-0.4,0.4-0.6,0.6
		c-0.2,0.1-0.5,0.2-0.7,0.2c-0.4,0-0.6-0.1-0.9-0.3s-0.4-0.5-0.6-0.9c-0.1,0.2-0.2,0.4-0.4,0.5s-0.4,0.2-0.6,0.2
		c-0.1,0-0.2,0-0.3-0.1C8,23,7.9,23,7.8,22.9c-0.1-0.1-0.2-0.2-0.3-0.3c-0.1-0.1-0.2-0.2-0.3-0.4C7,22.5,6.7,22.8,6.4,23
		s-0.7,0.3-1.1,0.3c-0.3,0-0.7-0.1-0.9-0.2c-0.3-0.1-0.5-0.3-0.7-0.6c-0.2-0.2-0.4-0.5-0.5-0.9S3,21,3,20.6z M6.7,20.6
		c0-0.3,0-0.5-0.1-0.7c-0.1-0.2-0.2-0.4-0.3-0.5c-0.1-0.1-0.3-0.2-0.5-0.3c-0.2-0.1-0.4-0.1-0.6-0.1c-0.4,0-0.8,0.1-1,0.4
		s-0.4,0.6-0.4,1.2c0,0.5,0.1,0.9,0.4,1.1s0.6,0.4,1,0.4c0.2,0,0.4,0,0.6-0.1c0.2-0.1,0.3-0.2,0.5-0.3c0.1-0.1,0.2-0.3,0.3-0.5
		C6.7,21.1,6.7,20.9,6.7,20.6z M10.6,18.4c-0.2,0-0.3,0-0.4,0.1C10,18.7,9.9,18.8,9.9,19s-0.1,0.4-0.1,0.6c0,0.2,0,0.5,0,0.7
		c0,0.2,0,0.5,0,0.7s0,0.5-0.1,0.7c0.1,0.3,0.3,0.5,0.5,0.6c0.2,0.2,0.4,0.2,0.7,0.2c0.2,0,0.3,0,0.4-0.1c0.1-0.1,0.3-0.2,0.4-0.4
		s0.2-0.4,0.2-0.6c0.1-0.3,0.1-0.6,0.1-0.9c0-0.3,0-0.6-0.1-0.9c-0.1-0.3-0.2-0.5-0.3-0.7c-0.1-0.2-0.2-0.3-0.4-0.4
		C10.9,18.5,10.8,18.4,10.6,18.4z"/>
	<path d="M12.3,13.8c0.1,0,0.2,0.1,0.2,0.2c0.1,0.1,0.1,0.2,0.1,0.3v0.9l-2.8-1.3l-6.7,2.9v-1.1c0-0.1,0-0.2,0.1-0.3
		c0.1-0.1,0.1-0.1,0.2-0.1l4.5-1.9c0.1,0,0.2-0.1,0.3-0.1s0.2-0.1,0.3-0.1c-0.1,0-0.2-0.1-0.3-0.1c-0.1,0-0.2-0.1-0.3-0.1l-4.5-1.8
		c-0.1,0-0.1-0.1-0.2-0.1c0-0.1-0.1-0.1-0.1-0.2v-1L12.3,13.8z"/>
</g>
</svg>
